<svg width="25" height="25" viewBox="0 0 25 25" fill="none" xmlns="http://www.w3.org/2000/svg">
<g clip-path="url(#clip0_63_5605)">
<path fill-rule="evenodd" clip-rule="evenodd" d="M16.704 0.0244769C16.7222 -0.0014862 16.7579 -0.00779593 16.7839 0.0103837L18.559 1.25335C18.585 1.27153 18.5913 1.30731 18.5732 1.33327L16.1025 4.86176C17.3036 5.24549 18.1219 5.65941 18.1219 5.65941C18.1219 5.65941 16.1217 9.1 12.7291 9.1C9.33654 9.1 6.92581 5.89331 6.92581 5.89331C6.92581 5.89331 7.78061 5.34779 9.04772 4.87992L6.33772 1.6503C6.31735 1.62602 6.32053 1.58982 6.3448 1.56945L8.00483 0.176499C8.02915 0.156126 8.06533 0.159293 8.08569 0.183573L11.517 4.27284C11.8108 4.23961 12.1101 4.22103 12.4122 4.22103C12.8463 4.22103 13.2799 4.25404 13.7032 4.31004L16.704 0.0244769ZM17.3752 9.26294C18.2805 8.61635 19.6505 6.92872 19.6505 6.92872C19.6505 6.92872 23.1497 9.70171 23.1497 15.5815C23.1497 21.4612 17.1 25 17.1 25C17.1 25 14.2096 22.081 13.5 18.3807C12.7905 14.6804 14.5497 10.5716 14.5497 10.5716C14.5497 10.5716 16.4698 9.90953 17.3752 9.26294ZM7.6249 9.26294C6.71956 8.61635 5.34962 6.92872 5.34962 6.92872C5.34962 6.92872 1.85034 9.70171 1.85034 15.5815C1.85034 21.4612 7.90005 25 7.90005 25C7.90005 25 10.7905 22.081 11.5001 18.3807C12.2096 14.6804 10.4504 10.5716 10.4504 10.5716C10.4504 10.5716 8.53028 9.90953 7.6249 9.26294Z" fill="#8CB330"/>
</g>
<defs>
<clipPath id="clip0_63_5605">
<rect width="25" height="25" fill="white"/>
</clipPath>
</defs>
</svg>
