<svg xmlns="http://www.w3.org/2000/svg" width="24" height="24" viewBox="0 0 512 512">
<g>
<path d="M 198.72 479.25 C190.83,470.52 188.38,436.97 182.00,250.50 C177.92,131.23 175.33,75.58 173.97,78.18 C172.79,80.41 170.68,123.09 167.01,219.00 C166.40,234.68 165.26,260.55 164.46,276.50 C159.94,366.64 156.09,387.04 143.62,386.99 C129.10,386.92 125.49,370.95 119.99,282.50 C116.97,233.86 113.58,199.25 111.66,197.33 C110.46,196.13 106.34,221.73 102.47,254.50 C97.58,295.86 93.46,307.70 83.29,309.61 C75.39,311.09 67.52,306.34 61.52,296.45 C59.20,292.63 56.22,288.94 54.90,288.26 C53.32,287.45 47.46,287.02 37.70,287.01 C23.34,287.00 22.84,286.93 20.45,284.55 C17.45,281.55 17.32,278.13 20.07,274.63 L 22.15 272.00 L 38.82 272.01 C48.00,272.01 57.22,272.49 59.32,273.07 C64.29,274.45 70.48,280.11 74.17,286.64 C78.32,294.00 79.69,294.94 81.05,291.36 C82.63,287.21 86.57,262.87 88.48,245.50 C91.99,213.40 95.64,194.55 99.97,186.05 C106.01,174.22 117.92,173.80 123.33,185.23 C129.03,197.29 131.42,218.41 136.49,301.50 C138.10,327.89 140.70,355.02 141.94,358.36 C142.70,360.41 142.90,359.04 144.99,338.00 C147.06,317.20 150.01,259.43 151.48,211.00 C154.00,128.24 157.92,63.04 161.52,44.26 C163.06,36.17 165.84,29.19 168.32,27.14 C169.22,26.40 171.83,25.74 174.11,25.69 C177.42,25.62 178.72,26.14 180.54,28.25 C187.32,36.14 190.33,72.29 195.53,208.50 C196.35,229.95 197.90,270.90 198.98,299.50 C201.51,366.88 203.94,418.33 204.85,424.00 C205.40,427.38 205.88,423.51 206.79,408.50 C208.57,379.06 210.72,333.81 212.48,288.50 C215.54,209.99 218.42,163.75 221.59,142.00 C224.61,121.28 227.83,115.00 235.40,115.00 C248.46,115.00 251.25,130.52 256.51,232.50 C260.93,317.93 263.54,352.46 265.93,356.82 C267.27,359.27 269.94,332.75 273.00,286.50 C276.69,230.72 279.19,211.82 284.35,200.55 C288.41,191.68 295.70,188.69 302.76,192.99 C311.63,198.40 314.27,209.64 318.51,260.00 C319.92,276.77 321.73,294.42 322.53,299.21 C324.30,309.77 326.63,316.08 328.51,315.36 C331.36,314.26 333.25,306.87 337.50,280.21 C341.31,256.26 348.23,247.37 361.36,249.55 C370.16,251.01 375.25,255.93 381.13,268.66 C383.21,273.16 385.63,277.25 386.51,277.75 C389.95,279.67 394.11,277.79 401.43,271.00 C409.92,263.13 413.76,261.55 422.65,262.26 C427.73,262.67 430.26,263.54 435.25,266.60 L 441.50 270.43 L 462.65 270.97 C481.60,271.44 484.01,271.70 485.90,273.40 C487.07,274.46 488.00,276.54 488.00,278.07 C488.00,285.94 485.24,287.00 464.69,287.00 C444.71,287.00 439.71,286.14 429.80,281.00 C425.57,278.80 420.95,277.00 419.54,277.00 C417.76,277.00 414.70,279.11 409.46,283.97 C398.98,293.69 389.62,296.32 380.50,292.11 C374.96,289.55 372.84,286.94 367.45,276.00 C362.67,266.29 361.69,265.04 358.91,265.02 C356.51,264.99 355.10,269.09 352.96,282.40 C347.96,313.38 345.76,320.27 338.92,326.46 C332.64,332.13 323.24,332.50 317.75,327.29 C309.52,319.47 306.45,306.14 303.52,265.50 C301.27,234.32 298.55,212.00 296.98,212.00 C294.95,212.00 291.68,237.98 289.51,271.50 C284.86,343.24 282.91,361.83 278.90,372.53 C272.79,388.87 258.47,388.43 253.52,371.77 C248.39,354.49 246.73,335.52 240.50,223.00 C238.62,189.23 236.15,155.82 235.48,155.15 C235.22,154.88 235.00,155.53 235.00,156.58 C235.00,157.64 234.57,163.23 234.04,169.00 C231.85,192.88 229.45,237.85 226.52,310.00 C221.04,444.58 218.35,472.65 210.29,478.99 C207.06,481.53 200.91,481.66 198.72,479.25 Z" fill="rgba(255,255,255,1)"/>
</g>
</svg>