<svg width="25" height="25" viewBox="0 0 25 25" fill="none" xmlns="http://www.w3.org/2000/svg">
<g clip-path="url(#clip0_63_5621)">
<path fill-rule="evenodd" clip-rule="evenodd" d="M13.7127 12.4454C13.8822 12.342 14.0259 12.1255 14.1418 11.8849C15.6675 12.5084 16.7396 13.9819 16.7396 15.7002C16.7396 17.9829 14.8475 19.8334 12.5135 19.8334C11.5554 19.8334 10.6718 19.5216 9.96294 18.996C9.73042 18.8859 9.53911 18.7802 9.38257 18.6936C9.13975 18.5594 8.98052 18.4713 8.88081 18.4851C8.58936 18.5253 8.67398 18.7935 8.75088 19.0371C8.80308 19.2025 8.85176 19.3567 8.77642 19.4203C8.69761 19.4869 8.44234 19.2435 8.14404 18.9591C7.73799 18.5719 7.25225 18.1088 7.02319 18.2479C6.84209 18.3579 7.01792 18.6563 7.23316 19.0215L7.24912 19.0486C7.34004 19.203 7.44541 19.3603 7.54155 19.5037C7.73701 19.7953 7.89443 20.0302 7.81567 20.07C7.72046 20.118 7.05708 19.6703 6.49805 19.0486C6.28228 18.8087 6.07329 18.5487 5.87905 18.307V18.307C5.45391 17.778 5.09971 17.3373 4.90088 17.3895C4.6617 17.4523 4.84263 17.9457 5.1085 18.4204C5.23281 18.6424 5.37905 18.8685 5.50566 19.0643V19.0643C5.70259 19.3687 5.85205 19.5997 5.79785 19.6281C5.72471 19.6664 5.0811 19.0388 4.64397 18.2479C4.38432 17.7781 4.1663 17.259 3.9898 16.8387C3.79839 16.3829 3.65581 16.0434 3.56192 16.0092C3.23572 15.8905 3.23572 16.5556 3.36655 17.5155C3.38361 17.6408 3.40903 17.7721 3.44032 17.9059C4.70908 22.011 8.60659 25 13.2179 25C18.8584 25 23.4308 20.5279 23.4308 15.0113C23.4308 9.76074 19.2888 5.4564 14.0261 5.05342C14.0328 4.80607 14.1619 4.31558 14.1619 4.31558C14.1619 4.31558 15.0909 2.06773 15.14 1.5874C15.1433 1.55552 15.1471 1.52087 15.1513 1.48398C15.2091 0.964985 15.3168 0 14.4866 0C14.0433 0 13.8371 0.329816 13.6013 0.707026V0.707031C13.5108 0.851841 13.4159 1.00364 13.3015 1.14644C12.4779 2.17498 11.0929 3.45941 10.3076 4.14371C8.64776 5.59004 7.01924 6.77871 6.06943 7.47197L6.06939 7.47202C5.6374 7.7873 5.34585 8.00015 5.25562 8.08809C4.57564 8.75098 2.13754 13.1487 2.13754 13.1487C2.13754 13.1487 1.34909 14.5597 1.62934 14.8458C1.90959 15.132 2.58541 15.0664 2.58541 15.0664C2.58541 15.0664 11.6646 12.9835 12.4774 12.8193C12.6962 12.775 12.8507 12.7495 12.9693 12.7299C13.2914 12.6768 13.3492 12.6672 13.7127 12.4454ZM7.29346 9.76875C6.8061 10.232 5.99785 11.3377 5.99785 11.3377C5.99785 11.3377 7.5 11.4302 8.3273 10.6438C9.15464 9.85742 8.96509 8.51724 8.96509 8.51724C8.96509 8.51724 7.78076 9.30552 7.29346 9.76875Z" fill="#0F6AC0"/>
</g>
<defs>
<clipPath id="clip0_63_5621">
<rect width="25" height="25" fill="white"/>
</clipPath>
</defs>
</svg>
