<svg width="25" height="25" viewBox="0 0 25 25" fill="none" xmlns="http://www.w3.org/2000/svg">
<g clip-path="url(#clip0_63_5609)">
<path fill-rule="evenodd" clip-rule="evenodd" d="M4.31146 2.0784C4.61401 0.883858 5.69619 0 6.98477 0C7.95132 0 8.80176 0.4973 9.29414 1.25H10.1004C10.6014 0.735918 11.3012 0.416667 12.0757 0.416667C13.2111 0.416667 14.1863 1.10294 14.6091 2.08333H15.2841C15.7071 1.81926 16.2069 1.66667 16.7423 1.66667C17.8778 1.66667 18.853 2.35294 19.2757 3.33333H21.1114C21.1271 3.33333 21.1418 3.33756 21.1544 3.34493C21.2383 3.33726 21.3232 3.33333 21.409 3.33333C22.932 3.33333 24.1666 4.56794 24.1666 6.09092V14.3597L24.1666 14.375L24.1666 14.3903V14.5094C24.1666 14.5599 24.1652 14.6101 24.1625 14.6601C23.9965 20.3963 18.8386 25 12.4999 25C6.05659 25 0.833252 20.243 0.833252 14.375C0.833252 11.5425 2.05029 8.9689 4.03411 7.06421C4.02916 9.82559 4.0758 12.6804 4.29081 12.6314C4.86651 12.5001 4.4167 3.94724 4.31146 2.0784Z" fill="#D04164"/>
</g>
<defs>
<clipPath id="clip0_63_5609">
<rect width="25" height="25" fill="white"/>
</clipPath>
</defs>
</svg>
