<svg width="25" height="25" viewBox="0 0 25 25" fill="none" xmlns="http://www.w3.org/2000/svg">
<g clip-path="url(#clip0_63_5645)">
<path fill-rule="evenodd" clip-rule="evenodd" d="M4.64935 21.8085C4.56026 21.7247 4.47216 21.6392 4.38508 21.5522C-0.212018 16.9551 -0.212017 9.50172 4.38508 4.90465C8.98215 0.307541 23.6303 0 23.6303 0C23.6303 0 25.6297 16.9551 21.0326 21.5522C16.9498 25.635 10.6141 26.0917 6.02719 22.9224L9.72313 18.3869L15.6314 17.1113L10.8085 16.6291L13.8735 13.5084L17.3625 12.7441L14.6036 11.927L17.3625 6.95017L13.4383 11.3518L11.9229 9.21337L12.4564 12.7441L9.72313 15.8253L8.45616 11.927V17.1113L4.64935 21.8085Z" fill="#62B957"/>
</g>
<defs>
<clipPath id="clip0_63_5645">
<rect width="25" height="25" fill="white"/>
</clipPath>
</defs>
</svg>
