<svg width="25" height="25" viewBox="0 0 25 25" fill="none" xmlns="http://www.w3.org/2000/svg">
<g clip-path="url(#clip0_69_688)">
<path d="M4.3023 12.5041C4.02905 12.5554 3.79591 12.5828 3.67887 12.8499C3.60749 13.0128 3.48599 13.0622 3.34224 12.9084C3.17191 12.7261 3.03777 12.8091 2.91715 12.9709C2.89413 13.0018 2.87743 13.0376 2.85326 13.0675C2.78297 13.1542 2.73279 13.2917 2.59021 13.2491C2.47607 13.215 2.46524 13.0895 2.43826 12.9869C2.42196 12.9249 2.4563 12.851 2.38344 12.7883C2.32444 12.8303 2.26617 12.8777 2.2024 12.9159C2.0411 13.0126 1.94026 12.9595 1.92111 12.7786C1.90768 12.6517 1.93007 12.5179 1.73612 12.5236C1.70996 12.5244 1.65441 12.4625 1.65954 12.4514C1.75754 12.2406 1.58243 11.9961 1.68817 11.8191C2.04275 11.2256 2.2984 10.576 2.73553 10.0284C3.3177 9.29902 3.99589 8.67694 4.73166 8.10752C5.60999 7.42776 6.587 6.93193 7.60522 6.50844C7.75143 6.44763 7.8516 6.36541 7.89421 6.214C7.89919 6.19523 7.90773 6.17759 7.91937 6.16205C8.38602 5.57096 8.42529 4.85424 8.52036 4.15105C8.57805 3.70013 8.70782 3.26141 8.9047 2.85166C9.07202 2.50873 9.15282 2.48528 9.51365 2.59007C10.1315 2.7695 10.7163 3.00886 11.2006 3.44832C11.3126 3.54994 11.4371 3.55136 11.5788 3.51556C12.5862 3.26113 13.5691 3.32846 14.5197 3.75979C14.6738 3.82976 14.7932 3.81175 14.9477 3.72586C15.5886 3.36976 16.2345 3.01169 16.9922 2.97165C17.4155 2.94929 17.505 3.00316 17.5796 3.42773C17.6988 4.10599 17.6824 4.79418 17.611 5.47551C17.5502 6.0565 17.5302 6.04787 18.0669 6.30026C19.5334 6.98991 20.9027 7.83487 22.068 8.96841C22.9326 9.80945 23.7363 10.7105 24.353 11.759C24.5374 12.0725 24.6501 12.4203 24.8657 12.7251C24.9553 12.8518 25.1484 13.1605 24.798 13.3223C24.7025 13.3664 24.7538 13.4558 24.7682 13.5288C24.8283 13.8335 24.8156 13.8447 24.5033 13.7602C24.4669 13.7503 24.4313 13.7379 24.3974 13.7274C24.3362 13.8017 24.3972 13.8621 24.4012 13.925C24.4116 14.0916 24.3265 14.1379 24.1855 14.082C24.0894 14.037 23.9966 13.9855 23.9076 13.9278C23.5917 13.7488 23.4365 13.7797 23.2267 14.0633C23.0597 14.2892 22.9281 14.2887 22.8566 14.0185C22.773 13.7026 22.558 13.6411 22.2941 13.5773C22.0557 13.5196 22.0543 13.6034 22.0998 13.7907C22.2295 14.3246 22.4232 14.8483 22.463 15.3973C22.4982 15.8831 22.7313 16.3229 22.7396 16.809C22.7424 16.9667 22.8922 16.9911 22.9738 17.0783C23.29 17.4163 23.6048 17.4609 23.9632 17.1313C24.0581 17.044 24.2124 16.9434 24.3573 17.0567C24.4834 17.1553 24.4583 17.3216 24.4084 17.435C24.112 18.1099 24.2765 18.8418 24.1439 19.5228C23.8734 20.9121 23.0337 21.8647 21.6431 22.2908C21.0387 22.476 20.4433 22.5312 19.8245 22.3689C19.3421 22.2502 18.9223 21.9539 18.6488 21.5391C18.5433 21.3829 18.4395 21.3092 18.2447 21.3592C17.3979 21.5769 16.5582 21.4838 15.7273 21.2682C15.3743 21.1708 15.0029 21.1604 14.645 21.2379C13.428 21.5018 12.1947 21.5733 10.9684 21.338C10.4271 21.2396 9.89706 21.0872 9.38615 20.8831C9.13515 20.7821 8.85825 20.765 8.59674 20.8343C7.93558 20.9831 7.26439 21.0558 6.58576 20.9672C6.41396 20.9448 6.27489 20.9544 6.15533 21.1168C5.79652 21.6041 5.28015 21.8314 4.7018 21.9272C2.84753 22.2343 1.15217 20.9353 0.614281 19.5045C0.601475 19.4785 0.591326 19.4513 0.583987 19.4233C0.4968 18.8051 0.310974 18.2048 0.0335954 17.6455C-0.0616494 17.4579 0.0565353 17.3539 0.250874 17.3453C0.327952 17.3403 0.405326 17.3479 0.479971 17.3677C0.705828 17.4341 0.844816 17.336 1.00841 17.1804C1.28555 16.9167 1.43277 16.6389 1.40141 16.2444C1.38 15.9752 1.55341 15.8877 1.80266 15.9928C1.83989 16.0037 1.87403 16.0231 1.90231 16.0497C2.21497 16.4508 2.65373 16.3436 3.06724 16.3465C3.19986 16.3474 3.27522 16.2879 3.34753 16.1828C3.55009 15.9009 3.67134 15.5687 3.69804 15.2226C3.76832 14.3465 3.9601 13.4844 4.26787 12.6612C4.28211 12.6094 4.2936 12.557 4.3023 12.5041Z" fill="#5A92A5"/>
</g>
<defs>
<clipPath id="clip0_69_688">
<rect width="25" height="25" fill="white"/>
</clipPath>
</defs>
</svg>
