<svg width="25" height="25" viewBox="0 0 25 25" fill="none" xmlns="http://www.w3.org/2000/svg">
<g clip-path="url(#clip0_69_672)">
<path d="M1.65012 14.0208C2.23008 14.0235 2.20825 14.0246 2.17754 13.4496C2.13463 12.6462 2.24185 11.853 2.4251 11.0702C2.72922 9.77125 3.28648 8.59848 4.15278 7.57658C4.35544 7.33752 4.31615 7.02478 4.33513 6.74497C4.4276 5.38231 4.64012 4.04588 5.07786 2.74709C5.29113 2.1143 5.49841 1.48613 5.91513 0.946959C6.10724 0.698405 6.26673 0.614665 6.61361 0.722079C8.0962 1.18116 9.33259 2.03159 10.4891 3.02663C10.6812 3.19192 10.8168 3.40566 10.9772 3.59827C11.1544 3.81092 11.335 3.91744 11.6487 3.78342C12.5314 3.40635 13.452 3.17198 14.4263 3.21693C15.2535 3.2551 15.9587 3.5868 16.5652 4.12608C17.2025 4.69278 17.6715 5.36821 17.8661 6.22247C17.9786 6.71638 18.5937 7.11332 19.0984 7.13032C20.1116 7.16444 21.1124 7.27615 22.0976 7.55246C23.0151 7.80975 23.8984 8.12317 24.6925 8.65733C25.0149 8.87419 25.0776 9.08473 24.9096 9.42149C24.5397 10.163 24.1657 10.9052 23.6736 11.5742C23.0351 12.4423 22.2837 13.2027 21.3527 13.7599C21.058 13.9363 20.9085 14.1545 20.881 14.4939C20.8101 15.3681 20.4803 16.1677 20.1702 16.9783C19.5665 18.5568 18.387 19.6582 17.1578 20.724C16.9324 20.9194 16.891 21.2086 16.7327 21.4374C16.6597 21.5429 16.8283 21.5737 16.8994 21.6244C17.4246 21.9986 17.7844 22.5149 18.0578 23.0788C18.2531 23.4819 18.1057 23.8251 17.7371 24.0448C17.3105 24.3026 16.8008 24.3859 16.3143 24.2773C15.0972 24.0259 14.0066 23.5243 13.1276 22.621C13.0171 22.5075 12.8942 22.5104 12.7548 22.5318C11.4849 22.726 10.2407 22.6612 9.01985 22.216C8.68711 22.0946 8.33408 22.025 8.01566 21.8595C7.91086 21.8051 7.83764 21.8428 7.75764 21.9142C6.53975 23.0006 5.08642 23.2037 3.53811 23.0163C3.33429 22.9916 3.1311 22.891 2.94697 22.7902C2.64232 22.6234 2.53999 22.3032 2.62857 21.9363C2.7797 21.3102 3.26769 20.9678 3.74021 20.6171C4.08303 20.3627 4.47347 20.1903 4.86995 20.0365C5.03328 19.9731 5.09584 19.9261 4.93615 19.7693C4.21589 19.0621 3.58109 18.2883 3.14576 17.3676C3.12092 17.3163 3.08499 17.2711 3.04056 17.2354C2.99613 17.1997 2.94431 17.1743 2.88886 17.1611C1.87394 16.826 0.972231 16.2152 0.284542 15.3971C-0.173691 14.8627 -0.0788705 14.4668 0.571964 14.1928C0.91797 14.0472 1.2803 14.0126 1.65012 14.0208Z" fill="#FFC5E6"/>
</g>
<defs>
<clipPath id="clip0_69_672">
<rect width="25" height="25" fill="white"/>
</clipPath>
</defs>
</svg>
