<svg width="25" height="25" viewBox="0 0 25 25" fill="none" xmlns="http://www.w3.org/2000/svg">
<g clip-path="url(#clip0_69_686)">
<path d="M9.50536 5.20471C9.18491 5.08001 8.88995 4.89782 8.63498 4.66711C8.43061 4.47663 8.20691 4.28652 8.32499 3.95254C8.35766 3.86017 8.28081 3.84023 8.22719 3.80257C7.57245 3.34267 7.58118 2.49269 8.23926 2.02327C8.46406 1.87219 8.7201 1.77391 8.98825 1.73577C9.12481 1.71127 9.26583 1.70139 9.2344 1.49835C9.23338 1.47442 9.23732 1.45053 9.24598 1.42819C9.25463 1.40586 9.26782 1.38555 9.2847 1.36855C9.50035 1.16385 9.689 0.871861 9.94696 0.782044C10.6146 0.549573 11.2079 0.10727 11.9472 0.0712917C12.3417 0.0520943 12.7337 -0.0159406 13.1307 0.0034363C13.4556 0.0192898 13.7072 0.141344 13.8265 0.4692C13.9122 0.704654 14.0138 0.934333 14.0991 1.16992C14.2162 1.49349 14.3062 1.8172 14.5204 2.10993C14.7755 2.45854 14.745 2.9195 14.8426 3.33063C14.8755 3.45173 14.8963 3.57582 14.9046 3.70106C14.9285 4.45294 15.4241 4.8201 16.0324 5.09485C16.2436 5.19024 16.4677 5.15408 16.6886 5.13458C17.1696 5.08996 17.6547 5.13986 18.1166 5.28149C18.6023 5.43071 18.9497 5.76214 19.241 6.15309C19.8769 7.00665 20.7805 7.50687 21.6812 8.00273C22.0122 8.18496 22.3427 8.3557 22.6279 8.60573C22.7747 8.72672 22.8828 8.88824 22.9385 9.07017C22.9943 9.25211 22.9953 9.44642 22.9415 9.62893C22.8314 10.057 22.7596 10.4948 22.5953 10.9116C22.4147 11.3698 22.1116 11.6624 21.6704 11.883C21.164 12.1363 20.7054 12.4801 20.1809 12.7114C19.799 12.873 19.4051 13.0045 19.0027 13.1046C18.6466 13.199 18.4247 13.3843 18.3698 13.754C18.3332 14.0004 18.185 14.1445 17.9519 14.2202C17.5565 14.3487 17.5686 14.3465 17.7648 14.7246C18.1374 15.4425 18.5332 16.1493 18.5746 16.9928C18.5943 17.395 18.8329 17.7256 19.1321 17.9783C19.743 18.4943 20.0009 19.1595 20.0491 19.9338C20.0653 20.1934 19.9931 20.448 20.0427 20.7115C20.0818 20.9196 20.1388 21.1052 20.3009 21.2443C20.5669 21.4725 20.6724 21.7666 20.7085 22.1085C20.7403 22.3975 20.8602 22.6696 21.052 22.8881C21.3501 23.2402 21.5536 23.6602 21.8334 24.0309C22.0811 24.3591 21.7478 24.8276 21.312 24.8162C20.8519 24.8042 20.4011 24.886 19.9478 24.9406C19.7927 24.9593 19.6361 24.9181 19.495 24.931C19.0214 24.9744 18.5689 24.9119 18.102 24.8476C17.8659 24.815 17.5771 25.0254 17.2786 24.9974C17.126 24.9767 16.9839 24.9082 16.8726 24.8018C16.7613 24.6954 16.6865 24.5565 16.6589 24.405C16.6344 24.2705 16.6592 24.1317 16.7288 24.0141C16.7985 23.8965 16.9082 23.8079 17.0378 23.7647C17.3891 23.6485 17.5352 23.4025 17.5931 23.0623C17.7497 22.1428 17.7351 22.1108 16.9306 21.626C16.6903 21.4812 16.4409 21.3575 16.1882 21.2369C15.8186 21.0604 15.583 20.7721 15.516 20.3572C15.4544 19.9861 15.4168 19.6114 15.4033 19.2355C15.3935 18.9228 15.2668 18.7004 14.9592 18.5591C14.2112 18.2157 13.6605 17.6298 13.1783 16.9846C12.9581 16.6899 12.7099 16.5298 12.3397 16.5054C11.9289 16.4784 11.5153 16.4699 11.115 16.3202C10.8549 16.2229 10.5304 16.4021 10.3821 16.6638C9.91104 17.4955 9.23396 18.0769 8.32883 18.3959C7.95851 18.5264 7.87853 18.6381 8.05936 18.975C8.48336 19.7648 8.28041 20.3929 7.67148 20.9682C7.54238 21.0989 7.43261 21.2474 7.3455 21.4091C7.14035 21.7641 7.23739 22.1961 7.618 22.55C7.69673 22.6138 7.7538 22.7004 7.78141 22.7979C7.80902 22.8954 7.80581 22.9991 7.77222 23.0947C7.68086 23.419 7.53707 23.7083 7.22433 23.877C7.08881 23.9526 6.97023 24.0551 6.87593 24.1783C6.48508 24.673 5.95141 24.7441 5.4103 24.5872C5.00908 24.4709 4.61237 24.5131 4.2178 24.4848C3.67101 24.4454 3.12409 24.4135 2.58101 24.3383C2.18054 24.2829 1.98329 23.9202 2.14469 23.5684C2.24355 23.3529 2.4468 23.3532 2.63304 23.3169C3.3939 23.1687 4.33494 22.2302 4.48727 21.4736C4.51796 21.3417 4.51005 21.2037 4.46448 21.0761C4.39739 20.8953 4.349 20.7047 4.25992 20.5354C3.98471 20.0126 3.9652 19.4961 4.20604 18.9514C4.33088 18.6691 4.34183 18.3552 4.29875 18.0439C4.27861 17.9394 4.27861 17.832 4.29874 17.7275C4.5103 16.9186 4.77804 16.137 5.40816 15.5381C5.54062 15.4123 5.65652 15.2687 5.77731 15.1309C5.81284 15.0904 5.87667 15.0479 5.83414 14.9851C5.81384 14.9574 5.78446 14.9377 5.75112 14.9294C5.71778 14.9212 5.68261 14.9249 5.65172 14.9399C5.57901 14.9657 5.50865 14.9988 5.43494 15.021C5.12693 15.1136 4.815 15.1844 4.49942 15.0644C4.33268 15.0009 4.1757 15.084 4.01291 15.0709C3.55724 15.0342 3.15242 14.8483 2.77712 14.6132C2.39906 14.3763 2.32731 14.0887 2.50511 13.6671C2.56177 13.5449 2.59146 13.4119 2.59217 13.2771C2.59287 13.1424 2.56457 13.0091 2.50919 12.8862C2.3615 12.5407 2.23786 12.1849 2.10502 11.8331C1.99321 11.5322 1.99005 11.2017 2.0961 10.8987C2.21946 10.5129 2.35012 10.1276 2.4384 9.73333C2.49421 9.48407 2.48082 9.2189 2.49402 8.96063C2.50867 8.67377 2.6291 8.44451 2.9043 8.35239C3.40938 8.18331 3.76562 7.81726 4.14326 7.475C4.42093 7.22335 4.76362 7.08857 5.1054 6.95574C5.854 6.66481 6.56626 6.32187 7.18516 5.78822C7.62461 5.4093 8.19939 5.33731 8.75827 5.27756C9.00618 5.25105 9.25314 5.20189 9.50536 5.20471ZM7.17071 13.8255C7.99625 13.6153 8.39018 13.0062 8.72547 12.338C8.76477 12.2597 8.80296 12.1845 8.75239 12.0937C8.55118 11.7324 8.65239 11.4044 8.87853 11.0995C9.01394 10.9169 8.96742 10.7841 8.83419 10.6155C8.49363 10.1845 8.0384 10.2388 7.59146 10.3045C7.26093 10.3532 6.91523 10.4262 6.71921 10.7478C6.42485 11.2308 6.54971 11.9622 6.97703 12.3261C7.05029 12.3884 7.12583 12.4484 7.19633 12.5137C7.39913 12.7017 7.47055 12.9149 7.36048 13.1884C7.27898 13.3909 7.23398 13.608 7.17072 13.8255L7.17071 13.8255Z" fill="#AEBFD7"/>
</g>
<defs>
<clipPath id="clip0_69_686">
<rect width="25" height="25" fill="white"/>
</clipPath>
</defs>
</svg>
