<svg width="25" height="25" viewBox="0 0 25 25" fill="none" xmlns="http://www.w3.org/2000/svg">
<g clip-path="url(#clip0_63_5665)">
<path fill-rule="evenodd" clip-rule="evenodd" d="M19.3027 11.9736C19.3013 11.9717 19.3007 11.9692 19.3011 11.9668L20.8928 2.68592C20.8935 2.68165 20.8972 2.67853 20.9015 2.67853H21.4053C21.4092 2.67853 21.4126 2.68105 21.4137 2.68475L24.9996 14.0384C25.0007 14.0419 24.9995 14.0458 24.9966 14.0481L22.3527 16.1123C22.3487 16.1154 22.343 16.1146 22.3401 16.1105L19.3027 11.9736ZM0 18.1262C0 18.13 0.00247515 18.1334 0.00613433 18.1346L5.45624 19.9166C5.45887 19.9175 5.46179 19.9171 5.46408 19.9155L17.6463 11.5052C17.6484 11.5038 17.6498 11.5016 17.6501 11.4991L18.9565 2.73351C18.9573 2.72813 18.9531 2.7233 18.9477 2.7233H8.15724C8.15456 2.7233 8.15208 2.72448 8.15037 2.72652L0.00204781 12.5562C0.000724087 12.5578 0 12.5598 0 12.5619V18.1262ZM7.72732 20.3707L13.6815 22.3211C13.6841 22.322 13.6871 22.3215 13.6894 22.3199L20.7782 17.235C20.7821 17.2323 20.7831 17.2268 20.7804 17.2228L18.123 13.2684C18.1203 13.2642 18.1147 13.2632 18.1106 13.266L7.72732 20.3707Z" fill="#BAAB82"/>
</g>
<defs>
<clipPath id="clip0_63_5665">
<rect width="25" height="25" fill="white"/>
</clipPath>
</defs>
</svg>
