<svg width="25" height="25" viewBox="0 0 25 25" fill="none" xmlns="http://www.w3.org/2000/svg">
<g clip-path="url(#clip0_69_690)">
<path d="M20.057 11.9573C19.8301 11.7905 19.6373 11.7553 19.4609 11.6861C19.3693 11.6554 19.2848 11.6068 19.2122 11.5431C19.1397 11.4794 19.0805 11.4019 19.0382 11.315C18.8741 10.9661 18.7252 10.6078 18.5318 10.2757C18.3847 10.0232 18.3984 9.79786 18.4824 9.53613C18.6252 9.09107 18.6152 9.0309 18.1587 9.01251C17.4582 8.9843 17.1198 8.44572 16.6586 8.07577C16.3919 7.86176 16.1559 7.62286 16.1665 7.2398C16.1712 7.06797 16.0575 7.03111 15.9401 7.10812C15.5649 7.35437 15.2693 7.2129 14.9893 6.94445C14.8711 6.83109 14.7645 6.85109 14.6323 6.94191C14.2402 7.2112 13.764 7.30976 13.3565 7.55306C13.2174 7.63612 13.0756 7.52647 12.9384 7.49536C12.7834 7.46021 12.6824 7.47831 12.7047 7.66301C12.7406 7.95879 12.5774 8.16333 12.3867 8.3436C11.9352 8.77047 11.5359 9.23418 11.2354 9.78284C11.1596 9.9239 11.0541 10.0469 10.9262 10.1433C10.7983 10.2397 10.6511 10.3072 10.4946 10.3413C10.1866 10.4155 9.89468 10.5546 9.574 10.5773C9.44516 10.5864 9.42199 10.6674 9.40771 10.7715C9.34736 11.2109 9.28172 11.6506 9.29928 12.0953C9.31447 12.4799 9.17672 12.7554 8.82806 12.9474C7.8837 13.4675 7.35871 14.3169 7.03647 15.3115C6.95148 15.5804 6.78071 15.814 6.55029 15.9766C6.12787 16.2806 5.69175 16.5656 5.26915 16.8694C5.02343 17.046 4.75219 17.0149 4.48786 16.9818C4.20108 16.9435 3.91152 16.9301 3.62244 16.9418C3.47249 16.9557 3.32171 16.9263 3.1879 16.8572C3.05409 16.7882 2.94284 16.6822 2.86729 16.552C2.77566 16.4083 2.66882 16.2937 2.49005 16.2672C2.45119 16.2631 2.41441 16.2476 2.38437 16.2226C1.86034 15.7021 1.24916 15.2642 0.843121 14.6316C0.619197 14.2827 0.62478 13.8971 0.736886 13.5146C0.891774 12.9861 0.923871 12.4737 0.61719 11.983C0.559118 11.89 0.593918 11.8032 0.653466 11.7154C0.734361 11.5962 0.795835 11.4639 0.873896 11.3425C1.00041 11.1458 1.01345 10.9737 0.811016 10.8117C0.693993 10.7181 0.687728 10.5812 0.722848 10.4395C0.841128 9.96225 0.953279 9.48345 1.07393 9.0068C1.11955 8.83852 1.19793 8.68089 1.30459 8.54297C1.52918 8.24109 1.76251 7.9451 1.97391 7.63421C2.18167 7.33048 2.46607 7.08711 2.79826 6.92879C3.01234 6.82304 3.12274 6.66725 3.14804 6.41156C3.23164 5.56663 3.24816 4.71837 3.29258 3.87195C3.34409 2.89048 3.45303 1.91132 3.42008 0.925161C3.40841 0.575967 3.77757 0.268263 4.11965 0.300677C4.29778 0.317554 4.35914 0.441564 4.37516 0.59988C4.43145 1.15611 4.47306 1.71427 4.5465 2.26822C4.65903 3.11698 4.73121 3.96983 4.85923 4.83247C4.92253 4.66961 5.006 4.51143 5.04499 4.34294C5.12998 3.97575 5.36525 3.73543 5.66672 3.54379C6.03266 3.31117 6.41079 3.09646 6.76651 2.84934C7.19272 2.55324 7.65575 2.51372 8.14858 2.57454C8.75776 2.64971 8.75887 2.64545 9.01306 2.10739C9.07071 1.98534 9.13076 1.86356 9.17642 1.73686C9.31268 1.35873 9.55977 1.10215 9.94773 0.975831C10.4855 0.800729 10.9503 0.48123 11.4225 0.183962C11.6313 0.0525145 11.8351 -0.0215166 12.0737 0.00554133C12.6405 0.0698446 13.2098 0.0607836 13.778 0.0576868C14.1142 0.055854 14.3499 0.189463 14.5194 0.469018C14.6393 0.666961 14.7686 0.859294 14.8867 1.05835C14.9744 1.20639 15.0918 1.24481 15.2533 1.19835C15.4946 1.12899 15.7392 1.06817 15.9605 0.946786C16.0187 0.912206 16.0858 0.895839 16.1533 0.899797C16.2208 0.903756 16.2856 0.92786 16.3393 0.968996C16.7771 1.25005 17.2172 1.52755 17.6556 1.80776C17.7719 1.88212 17.8809 1.97913 17.9162 2.1092C17.9954 2.40043 18.1941 2.3633 18.3884 2.28894C18.7392 2.15464 19.0821 1.99941 19.4277 1.85148C19.9694 1.61962 20.5047 1.64747 20.993 1.96497C21.5028 2.29643 21.9968 2.65416 22.5536 2.90208C22.8446 3.03162 23.0289 3.2352 23.1062 3.52756C23.3254 4.35646 23.5329 5.18851 23.7393 6.02071C23.7897 6.22366 23.6904 6.40049 23.5925 6.56641C23.4803 6.76895 23.3525 6.96249 23.2104 7.1453C23.0607 7.32719 23.1007 7.4505 23.2695 7.57479C23.3876 7.67401 23.5106 7.76714 23.6382 7.85379C23.8075 7.95038 23.9371 8.10384 24.004 8.28691C24.1447 8.66566 24.2756 9.04793 24.3968 9.43375C24.4129 9.4942 24.4168 9.55724 24.4084 9.61922C24.3999 9.68119 24.3792 9.74087 24.3475 9.79477C24.0025 10.472 23.6711 11.1561 23.33 11.8354C23.2819 11.9311 23.3394 11.9797 23.385 12.0381C23.6166 12.3343 23.8319 12.6461 24.088 12.9193C24.284 13.1284 24.3426 13.3507 24.2746 13.6066C24.1509 14.0722 24.0086 14.533 23.8726 14.9953C23.8412 15.1021 23.7555 15.1697 23.6812 15.2452C23.3905 15.5402 23.0771 15.8148 22.8559 16.1722C22.7742 16.3042 22.6419 16.363 22.497 16.3954C22.4136 16.4199 22.3275 16.4342 22.2407 16.4378C21.6838 16.4216 21.3213 16.6273 21.2704 17.234C21.255 17.417 21.1009 17.5215 20.9408 17.5658C20.4244 17.7085 19.9764 18.0676 19.4089 18.0473C19.3033 18.0436 19.2497 18.1084 19.2542 18.2133C19.2634 18.4281 19.1569 18.6024 19.0585 18.779C18.8053 19.2337 18.4699 19.5337 17.8963 19.4397C17.625 19.3952 17.3618 19.3835 17.3145 19.7854C17.2995 19.9122 17.1352 20.0283 17.0261 20.1359C16.7653 20.3928 16.5366 20.7496 16.2209 20.8666C15.8318 21.0109 15.8238 21.2916 15.7274 21.5708C15.7022 21.6435 15.6865 21.7283 15.6385 21.7829C15.2928 22.1763 15.5559 22.5347 15.7025 22.8933C15.7687 23.0553 16.0055 22.9656 16.0954 23.1006C16.2112 23.2747 16.3326 23.1849 16.4876 23.1711C17.1429 23.1127 17.8354 22.8955 18.3988 23.4592C18.5161 23.5766 18.589 23.5514 18.6588 23.4122C18.8409 23.0484 19.6088 22.9794 19.884 23.3525C20.0392 23.5627 19.974 23.8426 19.9286 24.0826C19.8566 24.4628 19.405 24.736 19.0339 24.6392C18.8464 24.5903 18.7295 24.6558 18.5659 24.7454C18.1334 24.9921 17.6225 25.0629 17.1393 24.9431C16.8604 24.8727 16.5945 24.75 16.3244 24.6467C16.2444 24.6161 16.1509 24.5892 16.114 24.5036C16.0247 24.2963 15.9378 24.2648 15.6859 24.3325C15.4214 24.4036 15.1279 24.1966 14.9433 23.9784C14.8327 23.8477 14.7299 23.803 14.5784 23.7545C14.2818 23.6596 13.9488 23.5652 13.962 23.1414C13.9652 23.0398 13.9139 22.996 13.8149 23.0432C13.6779 23.1086 13.5444 23.0676 13.4223 23.0159C13.0072 22.8336 12.6104 22.6123 12.2372 22.3548C12.1263 22.2742 12.051 22.1536 12.0275 22.0185C12.0008 21.8665 11.9643 21.7164 11.9184 21.5691C11.7815 21.2035 11.8307 20.8777 12.068 20.5668C12.138 20.4624 12.1878 20.3458 12.2149 20.2231C12.3265 19.8136 12.5112 19.4738 12.95 19.3323C13.1665 19.2625 13.2275 19.1009 13.2027 18.8761C13.1842 18.646 13.1801 18.4149 13.1904 18.1843C13.1905 18.1168 13.2103 18.0507 13.2474 17.9943C13.493 17.6608 13.7444 17.3315 13.9969 17.0032C14.0414 16.9392 14.104 16.8901 14.1766 16.862C14.2493 16.8339 14.3287 16.8283 14.4046 16.8457C14.4812 16.8549 14.5586 16.8573 14.6357 16.8528C15.0813 16.8539 15.0813 16.8536 15.1315 16.4231C15.1351 16.3654 15.1417 16.3079 15.1514 16.2509C15.2365 15.8747 16.2623 15.1474 16.6473 15.1882C17.1009 15.2364 17.0542 15.2009 17.2763 14.8205C17.6058 14.2561 18.1388 13.8552 18.618 13.4173C18.6655 13.3739 18.7651 13.3781 18.8408 13.3769C18.8673 13.3796 18.8941 13.3769 18.9195 13.369C18.945 13.361 18.9685 13.3481 18.9888 13.3308C19.0091 13.3136 19.0257 13.2924 19.0377 13.2686C19.0496 13.2448 19.0566 13.2188 19.0583 13.1923C19.1551 12.6238 19.4245 12.1822 20.057 11.9573Z" fill="#AAACB8"/>
</g>
<defs>
<clipPath id="clip0_69_690">
<rect width="25" height="25" fill="white"/>
</clipPath>
</defs>
</svg>
