<svg width="160" height="129" viewBox="0 0 160 129" fill="none" xmlns="http://www.w3.org/2000/svg">
<mask id="mask0_105_951" style="mask-type:alpha" maskUnits="userSpaceOnUse" x="0" y="0" width="160" height="129">
<rect width="160" height="129" rx="10" fill="white"/>
</mask>
<g mask="url(#mask0_105_951)">
<path d="M115 70C143.304 70 166.651 91.0628 170 118.258H143.156C140.1 105.637 128.653 96.2581 115 96.2581C101.347 96.2581 89.9002 105.637 86.8438 118.258H60C63.3489 91.0628 86.6963 70 115 70Z" fill="url(#paint0_linear_105_951)"/>
<path d="M143.156 131.742H170C166.651 158.937 143.304 180 115 180C86.6963 180 63.3489 158.937 60 131.742H86.8438C89.9002 144.363 101.347 153.742 115 153.742C128.653 153.742 140.1 144.363 143.156 131.742Z" fill="url(#paint1_linear_105_951)"/>
<path d="M115 143.097C125.069 143.097 133.232 134.995 133.232 125C133.232 115.005 125.069 106.903 115 106.903C104.931 106.903 96.7676 115.005 96.7676 125C96.7676 134.995 104.931 143.097 115 143.097Z" fill="url(#paint2_linear_105_951)"/>
<path d="M19.3243 12.1875C19.3243 13.3956 18.3563 14.375 17.1622 14.375C15.968 14.375 15 13.3956 15 12.1875C15 10.9794 15.968 10 17.1622 10C18.3563 10 19.3243 10.9794 19.3243 12.1875Z" fill="url(#paint3_linear_105_951)"/>
<path d="M34.4595 12.1875C34.4595 13.3956 33.4914 14.375 32.2973 14.375C31.1032 14.375 30.1351 13.3956 30.1351 12.1875C30.1351 10.9794 31.1032 10 32.2973 10C33.4914 10 34.4595 10.9794 34.4595 12.1875Z" fill="url(#paint4_linear_105_951)"/>
<path d="M49.5946 12.1875C49.5946 13.3956 48.6266 14.375 47.4324 14.375C46.2383 14.375 45.2703 13.3956 45.2703 12.1875C45.2703 10.9794 46.2383 10 47.4324 10C48.6266 10 49.5946 10.9794 49.5946 12.1875Z" fill="url(#paint5_linear_105_951)"/>
<path d="M64.7297 12.1875C64.7297 13.3956 63.7617 14.375 62.5676 14.375C61.3734 14.375 60.4054 13.3956 60.4054 12.1875C60.4054 10.9794 61.3734 10 62.5676 10C63.7617 10 64.7297 10.9794 64.7297 12.1875Z" fill="url(#paint6_linear_105_951)"/>
<path d="M79.8649 12.1875C79.8649 13.3956 78.8968 14.375 77.7027 14.375C76.5086 14.375 75.5405 13.3956 75.5405 12.1875C75.5405 10.9794 76.5086 10 77.7027 10C78.8968 10 79.8649 10.9794 79.8649 12.1875Z" fill="url(#paint7_linear_105_951)"/>
<path d="M95 12.1875C95 13.3956 94.032 14.375 92.8378 14.375C91.6437 14.375 90.6757 13.3956 90.6757 12.1875C90.6757 10.9794 91.6437 10 92.8378 10C94.032 10 95 10.9794 95 12.1875Z" fill="url(#paint8_linear_105_951)"/>
<path d="M19.3243 27.5C19.3243 28.7081 18.3563 29.6875 17.1622 29.6875C15.968 29.6875 15 28.7081 15 27.5C15 26.2919 15.968 25.3125 17.1622 25.3125C18.3563 25.3125 19.3243 26.2919 19.3243 27.5Z" fill="url(#paint9_linear_105_951)"/>
<path d="M34.4595 27.5C34.4595 28.7081 33.4914 29.6875 32.2973 29.6875C31.1032 29.6875 30.1351 28.7081 30.1351 27.5C30.1351 26.2919 31.1032 25.3125 32.2973 25.3125C33.4914 25.3125 34.4595 26.2919 34.4595 27.5Z" fill="url(#paint10_linear_105_951)"/>
<path d="M49.5946 27.5C49.5946 28.7081 48.6266 29.6875 47.4324 29.6875C46.2383 29.6875 45.2703 28.7081 45.2703 27.5C45.2703 26.2919 46.2383 25.3125 47.4324 25.3125C48.6266 25.3125 49.5946 26.2919 49.5946 27.5Z" fill="url(#paint11_linear_105_951)"/>
<path d="M64.7297 27.5C64.7297 28.7081 63.7617 29.6875 62.5676 29.6875C61.3734 29.6875 60.4054 28.7081 60.4054 27.5C60.4054 26.2919 61.3734 25.3125 62.5676 25.3125C63.7617 25.3125 64.7297 26.2919 64.7297 27.5Z" fill="url(#paint12_linear_105_951)"/>
<path d="M79.8649 27.5C79.8649 28.7081 78.8968 29.6875 77.7027 29.6875C76.5086 29.6875 75.5405 28.7081 75.5405 27.5C75.5405 26.2919 76.5086 25.3125 77.7027 25.3125C78.8968 25.3125 79.8649 26.2919 79.8649 27.5Z" fill="url(#paint13_linear_105_951)"/>
<path d="M95 27.5C95 28.7081 94.032 29.6875 92.8378 29.6875C91.6437 29.6875 90.6757 28.7081 90.6757 27.5C90.6757 26.2919 91.6437 25.3125 92.8378 25.3125C94.032 25.3125 95 26.2919 95 27.5Z" fill="url(#paint14_linear_105_951)"/>
<path d="M19.3243 42.8125C19.3243 44.0206 18.3563 45 17.1622 45C15.968 45 15 44.0206 15 42.8125C15 41.6044 15.968 40.625 17.1622 40.625C18.3563 40.625 19.3243 41.6044 19.3243 42.8125Z" fill="url(#paint15_linear_105_951)"/>
<path d="M34.4595 42.8125C34.4595 44.0206 33.4914 45 32.2973 45C31.1032 45 30.1351 44.0206 30.1351 42.8125C30.1351 41.6044 31.1032 40.625 32.2973 40.625C33.4914 40.625 34.4595 41.6044 34.4595 42.8125Z" fill="url(#paint16_linear_105_951)"/>
<path d="M49.5946 42.8125C49.5946 44.0206 48.6266 45 47.4324 45C46.2383 45 45.2703 44.0206 45.2703 42.8125C45.2703 41.6044 46.2383 40.625 47.4324 40.625C48.6266 40.625 49.5946 41.6044 49.5946 42.8125Z" fill="url(#paint17_linear_105_951)"/>
<path d="M64.7297 42.8125C64.7297 44.0206 63.7617 45 62.5676 45C61.3734 45 60.4054 44.0206 60.4054 42.8125C60.4054 41.6044 61.3734 40.625 62.5676 40.625C63.7617 40.625 64.7297 41.6044 64.7297 42.8125Z" fill="url(#paint18_linear_105_951)"/>
<path d="M79.8649 42.8125C79.8649 44.0206 78.8968 45 77.7027 45C76.5086 45 75.5405 44.0206 75.5405 42.8125C75.5405 41.6044 76.5086 40.625 77.7027 40.625C78.8968 40.625 79.8649 41.6044 79.8649 42.8125Z" fill="url(#paint19_linear_105_951)"/>
<path d="M95 42.8125C95 44.0206 94.032 45 92.8378 45C91.6437 45 90.6757 44.0206 90.6757 42.8125C90.6757 41.6044 91.6437 40.625 92.8378 40.625C94.032 40.625 95 41.6044 95 42.8125Z" fill="url(#paint20_linear_105_951)"/>
</g>
<defs>
<linearGradient id="paint0_linear_105_951" x1="60" y1="70" x2="170" y2="180" gradientUnits="userSpaceOnUse">
<stop stop-color="white" stop-opacity="0.1"/>
<stop offset="1" stop-color="white" stop-opacity="0"/>
</linearGradient>
<linearGradient id="paint1_linear_105_951" x1="60" y1="70" x2="170" y2="180" gradientUnits="userSpaceOnUse">
<stop stop-color="white" stop-opacity="0.1"/>
<stop offset="1" stop-color="white" stop-opacity="0"/>
</linearGradient>
<linearGradient id="paint2_linear_105_951" x1="60" y1="70" x2="170" y2="180" gradientUnits="userSpaceOnUse">
<stop stop-color="white" stop-opacity="0.1"/>
<stop offset="1" stop-color="white" stop-opacity="0"/>
</linearGradient>
<linearGradient id="paint3_linear_105_951" x1="15" y1="10" x2="95" y2="45" gradientUnits="userSpaceOnUse">
<stop stop-color="white" stop-opacity="0.3"/>
<stop offset="1" stop-color="white" stop-opacity="0"/>
</linearGradient>
<linearGradient id="paint4_linear_105_951" x1="15" y1="10" x2="95" y2="45" gradientUnits="userSpaceOnUse">
<stop stop-color="white" stop-opacity="0.3"/>
<stop offset="1" stop-color="white" stop-opacity="0"/>
</linearGradient>
<linearGradient id="paint5_linear_105_951" x1="15" y1="10" x2="95" y2="45" gradientUnits="userSpaceOnUse">
<stop stop-color="white" stop-opacity="0.3"/>
<stop offset="1" stop-color="white" stop-opacity="0"/>
</linearGradient>
<linearGradient id="paint6_linear_105_951" x1="15" y1="10" x2="95" y2="45" gradientUnits="userSpaceOnUse">
<stop stop-color="white" stop-opacity="0.3"/>
<stop offset="1" stop-color="white" stop-opacity="0"/>
</linearGradient>
<linearGradient id="paint7_linear_105_951" x1="15" y1="10" x2="95" y2="45" gradientUnits="userSpaceOnUse">
<stop stop-color="white" stop-opacity="0.3"/>
<stop offset="1" stop-color="white" stop-opacity="0"/>
</linearGradient>
<linearGradient id="paint8_linear_105_951" x1="15" y1="10" x2="95" y2="45" gradientUnits="userSpaceOnUse">
<stop stop-color="white" stop-opacity="0.3"/>
<stop offset="1" stop-color="white" stop-opacity="0"/>
</linearGradient>
<linearGradient id="paint9_linear_105_951" x1="15" y1="10" x2="95" y2="45" gradientUnits="userSpaceOnUse">
<stop stop-color="white" stop-opacity="0.3"/>
<stop offset="1" stop-color="white" stop-opacity="0"/>
</linearGradient>
<linearGradient id="paint10_linear_105_951" x1="15" y1="10" x2="95" y2="45" gradientUnits="userSpaceOnUse">
<stop stop-color="white" stop-opacity="0.3"/>
<stop offset="1" stop-color="white" stop-opacity="0"/>
</linearGradient>
<linearGradient id="paint11_linear_105_951" x1="15" y1="10" x2="95" y2="45" gradientUnits="userSpaceOnUse">
<stop stop-color="white" stop-opacity="0.3"/>
<stop offset="1" stop-color="white" stop-opacity="0"/>
</linearGradient>
<linearGradient id="paint12_linear_105_951" x1="15" y1="10" x2="95" y2="45" gradientUnits="userSpaceOnUse">
<stop stop-color="white" stop-opacity="0.3"/>
<stop offset="1" stop-color="white" stop-opacity="0"/>
</linearGradient>
<linearGradient id="paint13_linear_105_951" x1="15" y1="10" x2="95" y2="45" gradientUnits="userSpaceOnUse">
<stop stop-color="white" stop-opacity="0.3"/>
<stop offset="1" stop-color="white" stop-opacity="0"/>
</linearGradient>
<linearGradient id="paint14_linear_105_951" x1="15" y1="10" x2="95" y2="45" gradientUnits="userSpaceOnUse">
<stop stop-color="white" stop-opacity="0.3"/>
<stop offset="1" stop-color="white" stop-opacity="0"/>
</linearGradient>
<linearGradient id="paint15_linear_105_951" x1="15" y1="10" x2="95" y2="45" gradientUnits="userSpaceOnUse">
<stop stop-color="white" stop-opacity="0.3"/>
<stop offset="1" stop-color="white" stop-opacity="0"/>
</linearGradient>
<linearGradient id="paint16_linear_105_951" x1="15" y1="10" x2="95" y2="45" gradientUnits="userSpaceOnUse">
<stop stop-color="white" stop-opacity="0.3"/>
<stop offset="1" stop-color="white" stop-opacity="0"/>
</linearGradient>
<linearGradient id="paint17_linear_105_951" x1="15" y1="10" x2="95" y2="45" gradientUnits="userSpaceOnUse">
<stop stop-color="white" stop-opacity="0.3"/>
<stop offset="1" stop-color="white" stop-opacity="0"/>
</linearGradient>
<linearGradient id="paint18_linear_105_951" x1="15" y1="10" x2="95" y2="45" gradientUnits="userSpaceOnUse">
<stop stop-color="white" stop-opacity="0.3"/>
<stop offset="1" stop-color="white" stop-opacity="0"/>
</linearGradient>
<linearGradient id="paint19_linear_105_951" x1="15" y1="10" x2="95" y2="45" gradientUnits="userSpaceOnUse">
<stop stop-color="white" stop-opacity="0.3"/>
<stop offset="1" stop-color="white" stop-opacity="0"/>
</linearGradient>
<linearGradient id="paint20_linear_105_951" x1="15" y1="10" x2="95" y2="45" gradientUnits="userSpaceOnUse">
<stop stop-color="white" stop-opacity="0.3"/>
<stop offset="1" stop-color="white" stop-opacity="0"/>
</linearGradient>
</defs>
</svg>
