<svg width="25" height="25" viewBox="0 0 25 25" fill="none" xmlns="http://www.w3.org/2000/svg">
<g clip-path="url(#clip0_63_5917)">
<path fill-rule="evenodd" clip-rule="evenodd" d="M20.6101 16.9204C20.6101 21.3827 16.9791 25 12.5 25C8.02099 25 4.39001 21.3827 4.39001 16.9204C4.39001 12.5806 12.0614 0.661548 12.4821 0.011124C12.4917 -0.0037081 12.5084 -0.00370797 12.518 0.0111242C12.9387 0.661548 20.6101 12.5806 20.6101 16.9204ZM11.1481 22.4097C7.03271 21.5093 7.73694 16.9505 7.73694 16.9505C7.73694 16.9505 8.86072 19.7024 11.5878 20.5939C14.3149 21.4853 17.6106 20.1779 17.6106 20.1779C17.6106 20.1779 15.2635 23.3102 11.1481 22.4097Z" fill="white"/>
</g>
<defs>
<clipPath id="clip0_63_5917">
<rect width="25" height="25" fill="white"/>
</clipPath>
</defs>
</svg>
