<svg width="25" height="25" viewBox="0 0 25 25" fill="none" xmlns="http://www.w3.org/2000/svg">
<g clip-path="url(#clip0_69_670)">
<path d="M17.1357 6.48178C17.1173 6.88319 17.1359 7.28858 17.0731 7.69034C17.0526 7.82126 17.0435 7.94992 17.1663 8.06162C18.0358 8.85219 18.4336 9.88003 18.6272 11.0071C18.8035 12.0333 18.7449 13.0564 18.4051 14.0311C17.9995 15.1944 17.3806 16.2347 16.2778 16.8944C16.1507 16.9705 16.1146 17.049 16.1286 17.1957C16.1521 17.4935 16.1386 17.7932 16.0884 18.0877C15.9944 18.705 16.3661 19.1287 16.7693 19.5071C17.4681 20.1687 18.3589 20.5912 19.3133 20.7139C20.1937 20.8344 20.9946 20.6073 21.72 20.1033C21.9349 19.954 22.1953 19.8389 22.171 19.5019C22.1651 19.4205 22.2494 19.3707 22.3264 19.349C22.5859 19.2761 22.5601 19.1364 22.4812 18.9168C22.1688 18.0466 22.1513 17.1408 22.2166 16.2303C22.2422 15.7779 22.3279 15.3309 22.4716 14.901C22.6284 14.4226 22.9072 13.9933 23.2803 13.6553C23.5818 13.3859 23.9344 13.2435 24.3178 13.3789C24.7181 13.5202 24.8764 13.8789 24.9473 14.2818C25.128 15.3093 24.8161 16.2545 24.4383 17.1767C24.1797 17.8081 23.9391 18.454 23.55 19.0248C23.474 19.136 23.392 19.243 23.3045 19.3454C23.2424 19.4183 23.2164 19.4835 23.2582 19.5796C23.3879 19.8776 23.2779 20.1249 23.0745 20.344C22.9952 20.4295 22.9075 20.5042 22.9149 20.6372C22.9373 21.0442 22.7522 21.3897 22.5576 21.7206C22.3386 22.093 22.0886 22.448 21.8392 22.8015C21.608 23.1239 21.3127 23.3951 20.9718 23.5979C20.2789 24.0211 19.5664 24.3842 18.7795 24.621C16.8553 25.1997 14.9651 25.0313 13.0559 24.5314C11.691 24.174 10.4988 23.5305 9.41853 22.6482C9.0507 22.3478 8.71446 22.0159 8.47124 21.6029C8.36115 21.4159 8.25024 21.4062 8.04517 21.4929C6.84762 21.9995 5.72568 21.227 5.78566 19.9576C5.7891 19.8419 5.81912 19.7284 5.8734 19.6261C5.95222 19.4894 5.93005 19.3724 5.8762 19.2422C5.67178 18.7481 5.701 18.2811 6.05915 17.8633C6.15948 17.7463 6.10503 17.6756 6.01619 17.5989C5.98239 17.5716 5.94272 17.5524 5.90029 17.5428C5.85785 17.5333 5.81378 17.5336 5.77151 17.5439C4.8479 17.6845 4.21913 16.882 4.13187 16.1156C4.07365 15.6043 4.12237 15.11 4.5083 14.7124C4.53671 14.6794 4.55827 14.641 4.57174 14.5996C4.58521 14.5582 4.59031 14.5145 4.58676 14.471C4.59826 14.0537 4.7209 13.6469 4.94204 13.2928C5.04197 13.1239 4.98697 13.0679 4.83449 12.9958C4.23583 12.713 3.6874 12.3659 3.29484 11.8081C2.83072 11.1487 2.579 10.4283 2.60899 9.61814C2.62374 9.4451 2.58022 9.27209 2.48535 9.12663C1.87888 8.22041 1.75006 7.20712 1.81681 6.1448C1.85907 5.45283 2.01935 4.77318 2.29072 4.13524C2.3799 3.92492 2.31006 3.85848 2.10401 3.80258C1.7135 3.69649 1.32885 3.56988 0.951664 3.4233C0.675299 3.31773 0.436915 3.13177 0.26728 2.88939C0.0976452 2.64702 0.00454648 2.35937 0 2.06356C0.0017257 1.38479 0.919147 0.506295 1.77779 0.975009C2.38928 1.30881 2.92614 1.75463 3.53328 2.09431C3.71678 2.19697 3.82694 2.18851 3.99109 2.06513C4.59134 1.61395 5.17759 1.1429 5.85596 0.802424C6.30936 0.574859 6.79325 0.45367 7.27087 0.302129C8.41744 -0.0616523 9.59306 0.0109451 10.7664 0.0383385C11.1486 0.0472595 11.5057 0.192786 11.8554 0.318109C12.8474 0.673579 13.8009 1.12369 14.6286 1.78494C15.4101 2.40932 16.0859 3.14529 16.4957 4.06966C16.8344 4.83374 17.1654 5.6126 17.1357 6.48178Z" fill="#99CD7C"/>
</g>
<defs>
<clipPath id="clip0_69_670">
<rect width="25" height="25" fill="white"/>
</clipPath>
</defs>
</svg>
