<svg width="25" height="25" viewBox="0 0 25 25" fill="none" xmlns="http://www.w3.org/2000/svg">
<g clip-path="url(#clip0_69_679)">
<path d="M9.19526 21.9936C8.80315 21.7754 8.42482 21.5682 8.05023 21.3545C7.94354 21.2936 7.86932 21.3245 7.79586 21.4035C7.02861 22.2288 5.99599 22.4503 4.95367 22.6293C4.2103 22.7569 3.45237 22.6964 2.70171 22.7412C1.86511 22.7912 1.04322 22.8657 0.345004 23.4026C0.171774 23.5358 0.07211 23.4311 0.0337572 23.2638C-0.0210206 23.0363 -0.00893336 22.7978 0.0685663 22.577C0.76598 20.6418 2.01013 19.2693 4.05254 18.7211C4.70528 18.5428 5.38164 18.4664 6.05771 18.4945C6.30334 18.5054 6.40348 18.4443 6.38546 18.1735C6.28476 16.6595 6.83338 15.3424 7.63619 14.1008C8.84758 12.2273 10.0637 10.3553 10.7608 8.20844C11.0136 7.42974 11.016 7.42744 10.2273 7.27912C9.72275 7.18424 9.22524 7.06718 8.76295 6.83679C8.53277 6.72207 8.28421 6.70352 8.03809 6.65839C7.5058 6.56079 7.40376 6.43474 7.40232 5.81008C7.40054 5.038 7.74095 4.3905 8.22108 3.81701C8.47221 3.51704 8.61295 3.23589 8.39968 2.85693C8.32582 2.72568 8.30371 2.5645 8.26291 2.41564C8.19954 2.18448 8.30503 2.02041 8.48854 1.89934C8.67048 1.77931 8.82237 1.86409 8.95211 1.99712C9.0347 2.09678 9.12635 2.18857 9.2259 2.2713C9.15672 1.76888 9.32567 1.35522 9.62146 1.00239C10.2393 0.265471 11.2649 0.278056 11.8909 1.01306C12.0569 1.20297 12.1812 1.42558 12.2558 1.66651C12.2928 1.79032 12.3155 1.91784 12.4615 1.95369C12.6113 1.99048 12.6556 1.8555 12.7264 1.77132C13.2531 1.14454 13.9479 0.929807 14.6402 1.18231C15.3274 1.43297 15.9623 2.29557 15.963 2.97935C15.9637 3.63197 15.4299 4.34588 14.7575 4.56453C14.5746 4.62401 14.4623 4.71432 14.4786 4.9074C14.5244 5.44968 14.3075 5.93053 14.1297 6.41812C13.6895 7.62484 13.2693 8.837 13.0085 10.098C12.9812 10.2302 12.9597 10.3636 12.9384 10.4969C12.8405 11.1104 12.8386 11.117 13.4042 11.3172C13.5755 11.3779 13.7292 11.5965 13.8801 11.5242C13.9992 11.4671 14.0213 11.223 14.1041 11.0715C14.2709 10.7662 14.6229 10.6849 15.1103 10.8266C15.453 10.9262 15.535 11.0486 15.5216 11.4499C15.5113 11.7586 15.503 12.0676 15.4827 12.3758C15.4738 12.5117 15.5169 12.5937 15.6429 12.6473C15.7856 12.7062 15.9241 12.7747 16.0575 12.8523C16.3798 13.0444 16.6717 13.1407 16.9489 12.7605C17.082 12.5781 17.28 12.6259 17.4698 12.7384C17.7143 12.8833 17.9234 13.0735 17.8319 13.3599C17.7078 13.748 17.8369 13.9971 18.1146 14.2449C18.4018 14.5056 18.6359 14.8193 18.8041 15.1688C18.8984 15.3599 19.0137 15.4463 19.2405 15.3562C19.536 15.2388 19.7722 15.3836 19.9512 15.6054C20.1344 15.8323 20.212 16.108 20.0074 16.3504C19.6238 16.8051 19.6372 17.2921 19.7931 17.8216C19.8975 18.1761 20.1097 18.3793 20.4755 18.3774C21.2763 18.3734 21.9478 18.7384 22.605 19.129C23.3513 19.5726 24.0443 20.1035 24.8247 20.4927C24.9076 20.534 25.0126 20.5851 24.9988 20.701C24.9895 20.7638 24.9624 20.8227 24.9206 20.8705C24.8789 20.9184 24.8242 20.9532 24.7632 20.9709C24.3355 21.1235 23.8888 21.2161 23.4357 21.2461C23.1413 21.2713 22.8468 21.2953 22.5042 21.3239C22.8996 21.6211 23.2806 21.8649 23.589 22.195C23.7388 22.3454 23.8777 22.5061 24.0048 22.6761C24.1541 22.8898 24.0806 23.0423 23.8239 23.035C23.0865 23.0142 22.362 23.1419 21.6313 23.1956C20.8234 23.255 20.1218 22.9403 19.4482 22.5396C19.353 22.4831 19.2741 22.3876 19.1243 22.3898C19.2063 22.8095 19.4095 23.171 19.5739 23.5454C19.7983 24.0563 19.7054 24.1859 19.1335 24.1608C17.964 24.1077 16.8139 23.8422 15.7396 23.3771C15.3911 23.2341 15.0292 23.1262 14.6594 23.055C14.5715 23.0305 14.4782 23.0338 14.3922 23.0642C14.3062 23.0947 14.2317 23.1508 14.1787 23.2251C13.7974 23.6854 13.2683 23.8545 12.6939 23.9102C12.0973 23.9681 11.4985 23.9689 10.8999 23.9705C10.0992 23.9726 9.32082 24.0726 8.61508 24.4918C8.44421 24.5933 8.32544 24.5456 8.24661 24.3658C8.16389 24.1912 8.13589 23.9957 8.16628 23.8049C8.27658 23.1258 8.6297 22.5861 9.09534 22.1046C9.1273 22.0716 9.15696 22.0363 9.19526 21.9936Z" fill="#57B2DC"/>
</g>
<defs>
<clipPath id="clip0_69_679">
<rect width="25" height="25" fill="white"/>
</clipPath>
</defs>
</svg>
