<svg width="15" height="15" viewBox="0 0 15 15" fill="none" xmlns="http://www.w3.org/2000/svg">
<path fill-rule="evenodd" clip-rule="evenodd" d="M11.5816 7.18416C11.5808 7.18299 11.5804 7.18153 11.5807 7.1801L12.5357 1.61155C12.5361 1.60899 12.5383 1.60712 12.5409 1.60712H12.8432C12.8455 1.60712 12.8475 1.60863 12.8482 1.61085L14.9998 8.42302C15.0004 8.42513 14.9997 8.42747 14.9979 8.42884L13.4116 9.66738C13.4092 9.66922 13.4058 9.66876 13.404 9.66633L11.5816 7.18416ZM0 10.8757C0 10.878 0.00148509 10.88 0.0036806 10.8808L3.27374 11.95C3.27532 11.9505 3.27708 11.9502 3.27845 11.9493L10.5878 6.90311C10.589 6.90226 10.5899 6.90095 10.5901 6.89949L11.3739 1.64011C11.3744 1.63688 11.3719 1.63398 11.3686 1.63398H4.89435C4.89274 1.63398 4.89125 1.63469 4.89022 1.63591L0.00122869 7.53374C0.000434452 7.5347 0 7.5359 0 7.53716V10.8757ZM4.63639 12.2224L8.20887 13.3927C8.21048 13.3932 8.21227 13.3929 8.21364 13.3919L12.4669 10.341C12.4693 10.3393 12.4699 10.3361 12.4683 10.3337L10.8738 7.96103C10.8722 7.95854 10.8688 7.9579 10.8664 7.9596L4.63639 12.2224Z" fill="white"/>
</svg>
