<svg width="15" height="15" viewBox="0 0 15 15" fill="none" xmlns="http://www.w3.org/2000/svg">
<path fill-rule="evenodd" clip-rule="evenodd" d="M0.00149739 7.50916C-0.000498182 7.50576 -0.000499184 7.50154 0.00149472 7.49812L3.7733 1.0538C3.77526 1.05046 3.77886 1.0484 3.78273 1.0484H11.2586C11.2625 1.0484 11.2661 1.05048 11.2681 1.05385L14.9985 7.49818C15.0005 7.50154 15.0005 7.50573 14.9985 7.5091L11.2681 13.9462C11.2661 13.9496 11.2625 13.9516 11.2586 13.9516H3.78273C3.77886 13.9516 3.77526 13.9496 3.7733 13.9463L0.00149739 7.50916ZM10.9751 7.50002C10.9751 9.41862 9.41978 10.974 7.50118 10.974C5.58259 10.974 4.02724 9.41862 4.02724 7.50002C4.02724 5.5814 5.58259 4.02608 7.50118 4.02608C9.41978 4.02608 10.9751 5.5814 10.9751 7.50002Z" fill="white"/>
</svg>
